<svg id="Layer_1" data-name="Layer 1" xmlns="http://www.w3.org/2000/svg" viewBox="0 0 317.38 465.52"><defs><style>.cls-1{fill:#148119;}.cls-2{fill:#82480d;}.cls-3{fill:#5c3711;}.cls-4{fill:#5a3611;}.cls-5{fill:#185615;}.cls-6{fill:#195513;}.cls-7{fill:#175616;}.cls-8{fill:#185414;}.cls-9{fill:#175c16;}.cls-10{fill:#1c5816;}.cls-11{fill:#338c2e;}.cls-12{fill:#7d4a13;}.cls-13{fill:#0c5710;}.cls-14{fill:#105c13;}.cls-15{fill:#97a986;}.cls-16{fill:#549d67;}.cls-17{fill:#6a6342;}.cls-18{fill:#f8f8f5;}.cls-19{fill:#84490d;}.cls-20{fill:#844b10;}.cls-21{fill:#8c673e;}.cls-22{fill:#594322;}.cls-23{fill:#b2d8c1;}.cls-24{fill:#68390a;}.cls-25{fill:#663709;}</style></defs><title>palmtree-right</title><path class="cls-1" d="M358,313.75c-2.27-4.32-1.76-8.5.79-12.5,1.81-2.84,3.4-6,5.8-8.24,3.63-3.39,7.87-6.14,11.89-9.1,1.07-.8,2.46-1.2,3.43-2.09,7.37-6.7,16.48-9.77,25.81-12.11,6.18-1.56,12.58-2.23,18.86-3.4s12.57-2.5,19.72-3.92l-6.74-3.89a1.67,1.67,0,0,0-.56-.39l-.78-.5-11.38-2.94-12.89-2.33a43.73,43.73,0,0,0-13.39,1.72c-4.9,1.54-10.17,1.88-15.24,2.9-5.57,1.11-11.06,2.65-16.65,3.56-7.53,1.23-13.9,4.12-19.3,9.77-4.7,4.91-10.22,9-15.39,13.46-.11.1-.5.08-.5.08v0l-.59,2-.36,1.84L329,289.76c-.34-1.39-.54-2.23-.75-3.06a.5.5,0,0,0,0-.71l-.1-.09-3.77-5.12c-4.71-7-9.18-14.13-16.37-19a12,12,0,0,1-2.71-3,25,25,0,0,0-11.47-8.67c-2.83-1.08-5.42-2.74-8.21-3.94-4.15-1.78-8.23-4-12.58-4.93-10.5-2.17-31.88-4.13-31.88-4.13l-6.5-.63-7.55-.15s-10.86,1.32-16.06.53a39.38,39.38,0,0,0-14.9.91,59.22,59.22,0,0,1-6.5.83c-2,.22-4,.46-6,.55s-4,0-6,0a20.48,20.48,0,0,1,5.81-2c1.73-.5,3.38-1.23,5.07-1.85-3.36,0-10.07-.08-10.07-.08s-1.58.16-1.85.59c-2.47,3.81-6.85,3.78-10.42,5.38a10.53,10.53,0,0,0-1.46,1.1c6.66.61,12.85.89,19,1.79,17.83,2.61,35.57,5.86,52.3,12.86,12.23,5.12,22.94,12.73,32.61,21.78.77.71,3.25,1.56.75,3.24a26.42,26.42,0,0,1-3.84.79c-6,.39-12.08.75-18.12,1-11.73.5-22.38,4.74-32.63,9.86a129.39,129.39,0,0,0-26.56,17.34c-2.17,1.86-4.69,3.43-6.46,5.61-4.36,5.33-8.45,10.89-12.5,16.46a26.94,26.94,0,0,0-4.91,14.18c-.66,10-.74,19.93-1.16,29.87-.12,2.66-.62,5.31-.94,8v11.54c1.29-2.54,2.47-4.7,3.5-6.93,4.5-9.43,8.88-18.89,13.39-28.31,4.75-9.93,12.94-16.66,21.62-22.9.13-.1.31-.14.44-.24,11.8-9,25.55-12.05,39.94-12.12,6.46,0,13,1.58,19.39,2.81,2.17.42,4.57,1.5,5,4.63l-6,3.13-1.82,1c-5.43,1.67-9.54,5.24-13.23,9.43l11.21-6.38c-.78,1.44-1,2.3-1.5,2.73a105.18,105.18,0,0,1-9.2,7c-4.83,3.08-9.61,6-13.06,10.86A174.86,174.86,0,0,0,209.74,403c-1.13,3.12-3.19,5.88-4.74,8.86a19.61,19.61,0,0,0-2.19,5,200.17,200.17,0,0,0-4.16,36,10.8,10.8,0,0,1-.76,2.74,10.84,10.84,0,0,1-1.44-4.57,62.17,62.17,0,0,1,0-21.08c.69-4.38,1-8.83,1.5-13.25-1.33,3.41-3.16,6.72-3.91,10.25a117.09,117.09,0,0,0-1.58,35.69,12.49,12.49,0,0,0,.38,2.5c.8,2.66,2.56,3.14,4.39,1.05a25.55,25.55,0,0,0,3-4.64,143,143,0,0,1,20.28-28.91,13.58,13.58,0,0,1,1.89-1.4c0,9-4.83,16.84-4.17,25.9,3-.86,3.37-3.26,4.13-5.08,2.41-5.75,4.54-11.62,6.88-17.4,4.94-12.2,10.54-24.08,18.42-34.73.95-1.29,2.14-2.42,4-4.5-1.77,10.85-7.16,19.73-6.17,31.06a18.12,18.12,0,0,0,2.12-3.08,61.38,61.38,0,0,0,1.9-6.29c3-12.64,10.92-22.72,18-33.09,3-4.33,7.78-7.4,11.77-11,1.38-1.25,4.25-3.58,4.25-3.58s1.64,0,2.5,0l-.11.13c-1.7.22-1.73-.5-1-1.68.92-1.61,1.5-3.62,2.86-4.7s3.45-1.25,5.37-1.86c.11.81.22,1.61.32,2.41l7.62,1.43a33.15,33.15,0,0,1,13.41,4.88L321.4,374l4,.11a28.52,28.52,0,0,1-2.85-3.4c-.44-.71-.73-2.05-.35-2.57a2.87,2.87,0,0,1,2.55-.81,8.32,8.32,0,0,1,5.84,5.66l1.64,5.72c9.94,3.58,15.73,11.19,19.58,20.51,1.85,4.5,3.65,9.06,3,14.16-.22,1.78.36,3.6,2.59,3.5,1.89-.06,2.42-1.65,2.29-3.31-.29-4-.63-8-1.06-12-.14-1.28-.64-2.53-.24-4.26,1.86,2.09,3.82,4.09,5.54,6.27,2.93,3.7,5.57,7.61,8.57,11.24a43.31,43.31,0,0,1,10.19,33.3,7.44,7.44,0,0,0-.07,3,10.33,10.33,0,0,0,1.92,2.5c.66-.84,1.88-1.69,1.87-2.5-.06-5.5.12-11.11-.73-16.54-1.37-8.74-3.47-17.37-5.34-26.44a10.73,10.73,0,0,1,1.74,1.5c4.8,6.7,10.08,13.13,14.19,20.24,4.28,7.4,7.74,15.4,8.5,24.12.5,6,.5,12.08.7,18.13,0,.67,0,2,0,2s-.5,4.2,2.22,4.26c2.43,0,2.73-2,2.59-4,.09-3.79.11-7.58.31-11.37.22-4.18.62-8.36.9-12.54a17.15,17.15,0,0,0,0-4c-1.38-7.42-2.6-14.88-4.39-22.2-1.5-6-4.25-11.79-5.41-17.86-2-10.36-7.14-18.84-14.17-26.23s-13.71-14.94-22.72-20a13.18,13.18,0,0,1-3.61-2.73c-2.61-3-7.13-4.09-8.5-8.36a.71.71,0,0,0-.88-.32l-1.08-.65a.41.41,0,0,0-.5-.3.51.51,0,0,0-.15.07l-1.37-.72a.49.49,0,0,0-.63-.31l-.11.05-3.61-1.21,2.5-1.88c10.13-.42,20.21-.41,30.18,1.88,9.5,2.19,18.37,5.76,26.05,11.76a23.17,23.17,0,0,1,8.57,13.86c1.25,5.89,3.6,11.55,5.33,17.35.76,2.57,1.11,5.27,1.78,7.87.42,1.69,1.15,3.36,3.34,3.08s2.78-2,2.57-3.73a79.47,79.47,0,0,0-1.8-10.39c-1.91-7.45-4.08-14.84-6.3-22.8a27.64,27.64,0,0,1,13.49,5.74,136.78,136.78,0,0,1,16.17,15.19,161.61,161.61,0,0,1,15,20.3c3.28,5.22,5.31,11.23,7.89,16.89.7,1.54,2.11,4.58,2.11,4.58l2.32,1.41s2.1-1.27,2.31-2.17a22.45,22.45,0,0,0,.13-5c-.22-.46-.42-.92-.59-1.39a139.27,139.27,0,0,0-18.12-39.23c-5.41-8.05-11.74-15.5-17.26-23.52-7.6-11-19.31-17-29.5-24.88a10.29,10.29,0,0,0-2.79-1.14c-7.12-2.65-14.13-5.54-21.36-7.85C377.08,318.49,368.31,313.19,358,313.75ZM257.48,339.6l-.42.23.42-.23.41-.23Zm7.66,32.16c-2-5.23-1.94-11.59-.47-14.55.42-.85,1.57-1.34,2.38-2,.32,1,1,2,.91,2.9-.34,3.64-.85,7.27-1.45,10.87a10.42,10.42,0,0,1-1.37,2.78ZM230,406.71c-5.69-5.71-6.78-15.44-1.71-19.35-2.5,7.13-.7,13.27,1.72,19.35ZM223.65,248c7.7-4.17,15.5-5.36,18.56-3.3Z" transform="translate(-158.72 -232.89)"/><path class="cls-2" d="M285.83,695.18c9,.37,18,.9,27.05,1.06,9.18.16,18.4-.45,27.4,2.11a8.36,8.36,0,0,0,2,0h1l.26-.07c-2-2.5-1.26-4.92.08-7.44.85-1.6,1.91-3.38,1.9-5.08,0-4.5.43-13.47.43-13.47s-2.12-12.73-4.84-18.85c-2.24-5.05-5.79-6.38-10.5-6.61-.5,0-1.13.34-1.5.14-4.43-2.58-9.24-.81-13.85-1.14-1.2-.08-2.5,1-3.81,1.5-.69-1.79-2.47-1.84-4.4-1.4-3.43.79-6.87,1.55-10.27,2.44-1.71.44-2.91.22-3.74-2.23,1.9-.74,3.66-1.85,5.53-2.07,8-.94,16-1.62,24-2.38a3.78,3.78,0,0,1,1.5.12c4.46,1.44,8.92,2.87,13.35,4.39,1.82.63,3.45,2.24,5.7,1,.31-3.8-4.11-7.84.81-11.74L348.5,642c1.89-4.11,3.36-7.63,5.09-11a33.25,33.25,0,0,0,3.26-14.1,142.81,142.81,0,0,0-2.11-30.13c-1.47-8.65-3.62-17-9.06-24.16-.73,1-1.22,2.46-2.2,3.06-6,3.67-12.08,7.35-18.34,10.6-2.57,1.33-5.71,1.59-8.46,2.3-.55,6.95-1.09,13.65-1.63,20.34l-1-.07c.32-3.82.93-11.45.93-11.45a57.36,57.36,0,0,0,.23-6.55c-.18-2.43-2.77-4-4.76-2.81a22.88,22.88,0,0,0-5.71,4.66c-9,10.59-13.38,23.21-15.72,36.67-.45,2.63-1.07,5.36-.82,8,.72,7.5,1.77,15,2.86,22.45a30.15,30.15,0,0,0,1.89,5.5,30.7,30.7,0,0,1,4,4.25,5.11,5.11,0,0,1,.6,4.11c-1.71,3.71-3.61,7.2-4.63,11.33-1.27,5.13-4.14,9.85-6.1,14.83C286.09,691.44,286.11,693.37,285.83,695.18Zm26.66-87.95H313v5h-.46Zm.87-4.42.35-.88.35.33s-.06.63-.1.94Z" transform="translate(-158.72 -232.89)"/><path class="cls-3" d="M285.83,695.18c.28-1.81.26-3.74.92-5.4,2-5,4.83-9.71,6.1-14.84,1-4.12,2.92-7.61,4.63-11.33a5.09,5.09,0,0,0-.6-4.1,28.93,28.93,0,0,0-4-4.25,29.85,29.85,0,0,1-1.89-5.5c-1.09-7.47-2.14-14.94-2.86-22.45-.25-2.61.37-5.33.82-8,2.34-13.47,6.75-26.09,15.72-36.68a23.12,23.12,0,0,1,5.7-4.63c2-1.2,4.59.38,4.77,2.81a59.74,59.74,0,0,1-.23,6.55L314,598.85l1,.07c.53-6.69,1.07-13.39,1.63-20.34,2.75-.71,5.88-1,8.46-2.3,6.26-3.25,12.3-6.93,18.33-10.6,1-.6,2.2-3.06,2.2-3.06h0a14.3,14.3,0,0,0-3.32.91c-6.62,3.66-13.19,7.44-19.79,11.13a7.34,7.34,0,0,1-6.78.63c-.42-.18-1-.63-1.25-.5-4.8,2.8-6.67-.48-8.43-4l-2.94-.31L302,566.69a23.66,23.66,0,0,1-2-4.5c-1.12-5.25-2-10.54-3-15.81l-.14-5c-.3-2-.61-4.07-.91-6.1v-7.09a65.14,65.14,0,0,1,.15-7c.87-6.76,1.88-13.5,2.91-20.25.58-3.76,1.32-7.5,2-11.25,0-1.47,0-2.92,2-3.06.33-1.37.67-2.73,1-4.1.54-1.73-1.13-4.38,2.08-5,.18-2-.88-4.63,1.66-5.7a80.24,80.24,0,0,1,8.38-2.5l2.12-3c3.34-3,4.54-7.16,6.06-11.15l-1.93-2a32.92,32.92,0,0,0-2,4.5c-.95,3.28-5.78,7.38-5.78,7.38s-7.31,3.43-11,5a2.74,2.74,0,0,1-3.88-1.24c-2.3-4.41-5-8.68-6.75-13.3-2.81-7.36-5.14-14.94-5.35-23s-1.44-15.93-.34-23.64c1.4-9.78,2.59-19.58,3.73-29.39.36-3.19,1.39-6.46,4.78-7.75,3.94-1.5,8.08-2.62,12.3-1.22s8.17,3,12.24,4.56l1-1.12-6.9-3.91a26.68,26.68,0,0,1-13.41-4.88l-7.61-1.43c-2.33,1.42-4.68,2.84-7,4.25l-.57,1.58.12-.13c-1.38,8.61-2.69,17.23-4.18,25.82-.68,3.95-2.5,11.78-2.5,11.78s-.83,6.43-.21,9.45c2.79,13.48,4.86,27.14,9.73,40.12,1.91,5.11,5.23,15.5,5.23,15.5l.07.08a7.19,7.19,0,0,1-.43-4.8c2.92,4.32,3.25,12.77,3.25,12.77s-3.42,7.66-5,11.56a14.25,14.25,0,0,0-1.13,4.86c-.36,10.93-.6,21.87-.83,32.81a64.11,64.11,0,0,0,2.56,18.44c1.43,5.17,2,10.57,3.45,15.75,1.23,4.53,3.07,8.89,4.74,13.57-3.34,5.08-6.81,10.42-10.34,15.71s-5,11.39-6.19,17.5a69.73,69.73,0,0,0,1.5,33.5c1.8,6.09,3.27,12.28,5.07,19.11-2.7,8.06-7.15,16.44-8.93,25.77-.19,1-1.31,1.9-2.14,3C281.18,693.75,282.9,695.43,285.83,695.18Z" transform="translate(-158.72 -232.89)"/><path class="cls-4" d="M322.44,453.13l1.92,2,3.93,8L329,462c.18.44.37.87.55,1.31,4.93,9.61,8,19.92,11,30.22,1.9,6.42,3.87,12.91,4.83,19.5,1.23,8.44.11,17.2,3.29,25.42a5,5,0,0,1,0,2c-.23,5.2,1.5,10.7-2.41,15.59l-.74-1.43c-2.5,3.4.23,8,.23,8h0s7.59,15.5,9.06,24.16a142.81,142.81,0,0,1,2.11,30.13,33.55,33.55,0,0,1-3.26,14.1c-1.73,3.39-3.2,6.9-5.09,11L344,635.44c-4.92,3.89-.5,7.94-.81,11.74-2.25,1.25-3.88-.36-5.7-1-4.43-1.5-8.89-3-13.35-4.39a3.61,3.61,0,0,0-1.5-.13c-8,.76-16,1.45-24,2.39-1.87.22-3.63,1.33-5.53,2.06.83,2.45,2,2.67,3.74,2.23,3.4-.88,6.84-1.65,10.27-2.43,1.93-.44,3.71-.39,4.4,1.4,1.33-.56,2.61-1.6,3.81-1.5,4.61.33,9.42-1.45,13.85,1.14.35.2,1-.18,1.5-.15,4.74.24,8.28,1.56,10.5,6.62,2.72,6.12,4.84,18.85,4.84,18.85s-.44,9-.43,13.46c0,1.7-1.05,3.5-1.9,5.08-1.34,2.5-2.05,4.94-.08,7.45,4.11-.43,4.7-4,5.73-6.86a52.85,52.85,0,0,0,2.82-26.33c-.83-5.47-2.22-16.45-2.22-16.45l.8-3.73s6.34-13,8.68-19.81c1.57-4.5,1.88-9.55,2.28-14.39.44-5.36.44-10.77.45-16.16a17.35,17.35,0,0,0-.94-4.94c-2.18-7.23-4-14.62-6.8-21.6-2.69-6.68-2.72-13.3-2.44-20.27s-.46-14.12-1-21.17c-1.24-17.39-6.11-34-10.8-50.7-1.46-5.17-3.67-10.13-5.61-15.16-1.39-3.59-3-7.1-4.29-10.73a7.18,7.18,0,0,1,0-3.82,173.7,173.7,0,0,0,4.87-43,164.93,164.93,0,0,0-2.87-24.47L330.57,373a8.29,8.29,0,0,0-5.84-5.66,2.82,2.82,0,0,0-2.54.81c-.38.5-.1,1.86.34,2.57a29.59,29.59,0,0,0,2.86,3.4c-.07.5-.36,1.09-.19,1.46,3.25,7.12,4.55,14.83,5,22.4a171.33,171.33,0,0,1-2,41.75c-.19,1,.38,3.15-1.86,3.29l-1-3a7.7,7.7,0,0,0-1.94-.5c-1.09,0-2.43-.16-3.2.4-1.35,1-.56,2.27,0,3.59a27.27,27.27,0,0,1,1.13,4.78C321.72,449.89,322.08,451.54,322.44,453.13Z" transform="translate(-158.72 -232.89)"/><path class="cls-5" d="M162.24,385c.32-2.65.82-5.3.94-7.95.42-9.93.5-19.87,1.16-29.77a26.94,26.94,0,0,1,4.91-14.18c4.06-5.57,8.15-11.13,12.5-16.46,1.77-2.18,4.29-3.75,6.46-5.61a129.39,129.39,0,0,1,26.56-17.34c10.25-5.12,20.9-9.39,32.63-9.86,6-.25,12.09-.61,18.12-1a26.42,26.42,0,0,0,3.84-.79c-1.58-.5-3.15-1.35-4.74-1.38-6.82-.16-20.46-.06-20.46-.06l-8,.27-4.09,1.93-4.07,1L225.5,285c-12.78,3.93-24.84,9.38-35.36,17.7-7,5.5-18.29,19.23-18.29,19.23s-3.76,5.15-5.73,7.65a30.35,30.35,0,0,0-6.3,16.23c-1.15,12.39-2.23,24.77,1.38,37A16.16,16.16,0,0,0,162.24,385Z" transform="translate(-158.72 -232.89)"/><path class="cls-6" d="M188.56,235.35c-1.69.63-3.35,1.37-5.07,1.85a20.72,20.72,0,0,0-5.81,2c2,0,4,.07,6,0s4-.33,6-.56a56.89,56.89,0,0,0,6.5-.83,39.11,39.11,0,0,1,14.89-.9c5.21.79,16.06-.53,16.06-.53l7.55.15,6.5.63s21.39,2,31.88,4.12c4.35.9,8.44,3.15,12.58,4.94,2.79,1.19,5.39,2.85,8.21,3.93a25,25,0,0,1,11.47,8.67,12.78,12.78,0,0,0,2.71,3c7.2,4.85,11.66,12,16.38,19l1-1.16C322.53,271.27,318,264,311,258.28c-3.93-3.17-7.24-7.32-11.56-9.73-7.45-4.16-15.18-8.41-23.33-10.6-10.63-2.85-21.46-5.72-32.8-4.93-9.89.68-19.81.91-29.73,1.12-5.83.12-11.65-1-17.45.93C193.8,235.78,191.08,235.28,188.56,235.35Z" transform="translate(-158.72 -232.89)"/><path class="cls-7" d="M352.71,349c1.35,4.27,5.87,5.34,8.5,8.36a13.38,13.38,0,0,0,3.61,2.73c9,5,15.76,12.65,22.71,20s12.2,15.87,14.18,26.23c1.16,6.08,3.93,11.83,5.4,17.87,1.79,7.32,3,14.78,4.39,22.2a16.07,16.07,0,0,1,0,4c-.28,4.18-.68,8.36-.89,12.55-.2,3.78-.22,7.58-.32,11.36,4.18-8.5,5.13-17.73,6-26.94a29.55,29.55,0,0,0-.58-7,178.2,178.2,0,0,0-7.22-30.92c-3.4-10.13-9.24-18.64-15-27.28-1.86-2.78-4.5-5-6.67-7.6-8.54-10.05-19.32-17.24-30.47-23.95A28.74,28.74,0,0,0,352.71,349Z" transform="translate(-158.72 -232.89)"/><path class="cls-8" d="M358,313.75c10.33-.56,19.1,4.74,28.42,7.79,7.2,2.33,14.22,5.22,21.31,7.87a10.23,10.23,0,0,1,2.8,1.14c10.21,7.84,21.92,13.84,29.5,24.88,5.5,8,11.85,15.47,17.27,23.55A139.21,139.21,0,0,1,475.4,418.2a14.13,14.13,0,0,0,.59,1.39,54.65,54.65,0,0,0-3.08-21.83,123.39,123.39,0,0,0-15-27.37c-6.12-8.6-13.84-15.62-20.35-23.78a17.05,17.05,0,0,0-4-3.86c-8.25-5.2-16.22-11.08-25-15.13-9.42-4.35-19.66-6.93-29.55-10.29-1.9-.64-3.84-1.2-5.68-2C368.38,313.14,363.19,313.39,358,313.75Z" transform="translate(-158.72 -232.89)"/><path class="cls-9" d="M197.9,416.69c-.5,4.42-.79,8.87-1.5,13.25a62.11,62.11,0,0,0,0,21.07,10.8,10.8,0,0,0,1.44,4.56,11.11,11.11,0,0,0,.76-2.74,200.27,200.27,0,0,1,4.16-35.95,20.24,20.24,0,0,1,2.19-5c1.55-3,3.61-5.74,4.74-8.85a174.48,174.48,0,0,1,22.11-41.79c3.46-4.87,8.24-7.77,13.06-10.85a110.92,110.92,0,0,0,9.2-7c.53-.43.73-1.29,1.5-2.73L244.4,347c-2.61,1.79-5.5,3.3-7.77,5.44a79.32,79.32,0,0,0-9.5,10.4c-4,5.43-6.37,12.05-11.78,16.5.89,3.44-1.83,5.47-3.39,7.72C205.68,396.23,202.16,406.63,197.9,416.69Z" transform="translate(-158.72 -232.89)"/><path class="cls-10" d="M424.82,254.69l11.38,2.94c-7.4-5.55-25-8-25-8s-14.55,2.5-22,2.6c-6.1.07-17.78,3.16-17.78,3.16s-8.16,2-12.28,2.78a17.31,17.31,0,0,0-9.33,4.6c-2.74,2.69-5.78,5.09-8.81,7.72l-3.47-2.28-6.15,15.69a1,1,0,0,0,.5-.08c5.17-4.45,10.7-8.55,15.39-13.46,5.4-5.65,11.77-8.54,19.3-9.77,5.6-.91,11.09-2.45,16.65-3.56,5.08-1,10.35-1.36,15.25-2.9a43.94,43.94,0,0,1,13.38-1.72c3.4-1,9-.24,13.81,1.91Z" transform="translate(-158.72 -232.89)"/><path class="cls-11" d="M225.51,285l2.5-1.14-3.45-2.41c.1-.23.19-.47.29-.7l7.23,2.08,4.09-1.94a121,121,0,0,0-24.69-3.56c.5,2.78,2.3,2.82,4.08,2.9A13.57,13.57,0,0,1,225.51,285Z" transform="translate(-158.72 -232.89)"/><path class="cls-10" d="M325.47,279.63l-1.05,1.17,3.76,5.12C327.28,283.83,326.37,281.73,325.47,279.63Z" transform="translate(-158.72 -232.89)"/><path class="cls-7" d="M346.86,343.75l-2.5,1.88,3.6,1.21C347.49,345.85,344.87,345.64,346.86,343.75Z" transform="translate(-158.72 -232.89)"/><path class="cls-10" d="M328.26,286.72c.2.83.4,1.67.74,3.06l1.54-2.15Z" transform="translate(-158.72 -232.89)"/><path class="cls-9" d="M257.65,337.58l1.82-1Z" transform="translate(-158.72 -232.89)"/><path class="cls-10" d="M330.9,285.79l.59-2Z" transform="translate(-158.72 -232.89)"/><path class="cls-3" d="M294.07,472.12l.52.58L294,473c0-.25.09-.5.13-.75Z" transform="translate(-158.72 -232.89)"/><path class="cls-7" d="M348.73,347.1l1.37.72Z" transform="translate(-158.72 -232.89)"/><path class="cls-4" d="M343.3,698.35h0Z" transform="translate(-158.72 -232.89)"/><path class="cls-7" d="M350.75,348l1.08.65Z" transform="translate(-158.72 -232.89)"/><path class="cls-10" d="M437,258.13a1.82,1.82,0,0,1,.56.39C437.49,258.18,437.31,258,437,258.13Z" transform="translate(-158.72 -232.89)"/><path class="cls-12" d="M326.36,443c2.24-.13,1.68-2.25,1.87-3.29a169.36,169.36,0,0,0,2-41.75c-.5-7.57-1.79-15.28-5-22.4-.18-.37.11-1,.18-1.46l-4-.11-1.07,1.12c0,1.5.05,2.94,2.07,3.05,1.39,0,2.74.05,2.95,1.92.69,6.29,1.78,12.56,2,18.87.34,9.55.08,19.12.07,28.68v3.08l-.86,0-.17-2.85q-.5,4.06-1,8.13Z" transform="translate(-158.72 -232.89)"/><path class="cls-13" d="M265.14,371.76a10.6,10.6,0,0,0,1.37-2.76c.61-3.61,1.11-7.24,1.45-10.87.09-.94-.58-1.94-.9-2.91-.82.65-2,1.14-2.38,2C263.2,360.17,263.11,366.54,265.14,371.76Z" transform="translate(-158.72 -232.89)"/><path class="cls-14" d="M230,406.71c-2.42-6.08-4.22-12.22-1.71-19.35C223.19,391.27,224.28,401,230,406.71Z" transform="translate(-158.72 -232.89)"/><path class="cls-15" d="M286.45,368q3.53-2.12,7-4.25c-.11-.8-.21-1.6-.32-2.41-1.93.61-4,.78-5.38,1.86s-1.93,3.09-2.85,4.7Z" transform="translate(-158.72 -232.89)"/><path class="cls-13" d="M223.66,248l18.56-3.3C239.18,242.62,231.35,243.81,223.66,248Z" transform="translate(-158.72 -232.89)"/><path class="cls-16" d="M424.82,254.69c.31-.13.61-.27.91-.42-4.83-2.15-10.4-2.91-13.81-1.91Z" transform="translate(-158.72 -232.89)"/><path class="cls-17" d="M301.09,365.17a26.56,26.56,0,0,0,13.41,4.88A33.1,33.1,0,0,0,301.09,365.17Z" transform="translate(-158.72 -232.89)"/><path class="cls-9" d="M257.48,339.6l.42-.23-.41.23Z" transform="translate(-158.72 -232.89)"/><path class="cls-9" d="M257.49,339.6l-.43.23.42-.23Z" transform="translate(-158.72 -232.89)"/><path class="cls-18" d="M286.45,368l-1.5-.1c-.77,1.17-.75,1.9.95,1.68C286.07,369,286.26,368.54,286.45,368Z" transform="translate(-158.72 -232.89)"/><path class="cls-3" d="M312.49,607.23v5H313v-5Z" transform="translate(-158.72 -232.89)"/><path class="cls-3" d="M313.36,602.81l.6.39c0-.31.1-.94.1-.94l-.35-.33Z" transform="translate(-158.72 -232.89)"/><path class="cls-19" d="M328.29,463.16l-3.93-8c-1.5,4-2.71,8.15-6.05,11.15l3,9.07.38,1.34-.42-1.3-2.4-2.88-2.7-3.25a68,68,0,0,0-8.38,2.5c-2.54,1.06-1.48,3.67-1.66,5.7a13.18,13.18,0,0,1,1.16,2.16c3.1,9.12,4.18,18.59,4.94,28.14.5,6.17,1.31,12.31,1.79,18.5.2,2.5.61,5.36-.39,7.42-1.28,2.62-1.22,5.13-1.46,7.78a108.74,108.74,0,0,1-1.5,10.93c-.43,2.12-.9,4.7-2.32,6-2.23,2.07-2.21,6.82-2.21,6.82l0,5.56c1.76,3.53,3.63,6.81,8.43,4,.24-.14.83.31,1.25.5a7.29,7.29,0,0,0,6.78-.63c6.6-3.69,13.17-7.47,19.79-11.13a14.39,14.39,0,0,1,3.32-.91c-2.72-4.3-2.72-4.63-.22-8,.05-.33.24-.7.15-1-1.68-4.5,1.7-12.66,1.7-12.66s.85-.36,1.3-.53a5.42,5.42,0,0,0,0-2c-3.18-8.23-2.06-17-3.29-25.43-1-6.6-2.93-13.09-4.82-19.5-3-10.29-6.1-20.6-11-30.22Zm6.83,93.57c.14-7,.29-20.81.29-20.81S333.65,522,332.58,514C337.9,524.4,339.2,550,335.12,556.73ZM330,502.87c-2.44-5.57-5-11.09-5.3-17.3,2.23,5.63,4.68,11.19,5.3,17.3Zm.34,3.35,1.29-.59.94,6.11-.83.14Zm-6.5-24.07.07.75c-.1-.11-.27-.35-.27-.35s.11-.26.19-.4Zm-1-3c0,.25.05.5.07.75l-.27-.35a3.83,3.83,0,0,1,.18-.4Z" transform="translate(-158.72 -232.89)"/><path class="cls-2" d="M325.4,435.92q.51-4.07,1-8.13V421.2s.36-18.5-1.85-27.64c-1.22-5-1.47-10.28-2.16-15.43-2-.11-2.1-1.54-2.07-3.05-4.08-1.52-8.12-3.17-12.24-4.55s-8.37-.28-12.3,1.21c-3.39,1.29-4.42,4.56-4.79,7.75-1.13,9.82-2.33,19.62-3.72,29.4-1.1,7.71.12,15.75.33,23.64s2.54,15.59,5.35,23c1.77,4.62,4.45,8.88,6.75,13.29a2.73,2.73,0,0,0,3.88,1.24c3.71-1.58,11-5,11-5s4.84-4.1,5.79-7.38a32.28,32.28,0,0,1,2-4.5l-1.08-4.85a28.23,28.23,0,0,0-1.12-4.78c-.57-1.32-1.36-2.62,0-3.59.77-.56,2.11-.4,3.19-.4a7.59,7.59,0,0,1,1.94.5C325.38,438.65,325.4,437.28,325.4,435.92Zm-27.5,14.27c-.62-4.25-1.64-8.5-1.77-12.76-.15-4.5.7-9,.84-13.53.17-5.38-.2-10.8.12-16.17.46-7.69,1.29-15.35,2.11-23,.12-1.12,1-2.16,1.58-3.24C298.47,404.44,298,427.24,297.9,450.19Zm15.75-68.82c-.79,20.85-3.92,41.57-1.75,62.51-2.85-21-1.56-41.8,1.74-62.51Z" transform="translate(-158.72 -232.89)"/><path class="cls-19" d="M296,535.24l.92,6.11c2.89,1.69,2.93,3.14.13,5,1,5.28,1.88,10.57,3,15.81a23.7,23.7,0,0,0,2,4.5c2.47-.37,2-2.29,2.05-3.92,0-4.81-1-9.63,0-14.45a4.08,4.08,0,0,0,0-2.5c-2.36-4.63-.5-9.5-1-14.22-.17-1.66-.67-5-.67-5s-.69-5.37.86-7.91a99.9,99.9,0,0,1,.9,12.29c.22,4.18-.36,8.82,1.28,12.4,1.78,3.9-.8,8.11,2,12.22.66-1.72,1.19-2.77,1.5-3.88,1.52-5.75.63-11.83,2.28-17.57a3.35,3.35,0,0,0,0-1V517c0-1.18.32-2.54-.15-3.5-2.26-4.69-.5-9.8-1.78-14.62a73.64,73.64,0,0,1-1.65-11.41,6.33,6.33,0,0,0-3.55-5c-.33,1.37-.67,2.73-1,4.1,1.37,2.38,1.15,2.71-2,3.06-.67,3.75-1.4,7.5-2,11.26-1,6.74-2,13.5-2.91,20.24a62.86,62.86,0,0,0-.16,7C298.8,530.48,298.8,532.91,296,535.24Z" transform="translate(-158.72 -232.89)"/><path class="cls-2" d="M304.07,482.47a6.33,6.33,0,0,1,3.55,5,76.14,76.14,0,0,0,1.65,11.41c1.29,4.82-.5,9.93,1.78,14.62.47,1,.15,2.33.15,3.5v16.19a3.35,3.35,0,0,1,0,1c-1.65,5.75-.76,11.82-2.28,17.57-.3,1.11-.83,2.17-1.5,3.88-2.77-4.1-.19-8.32-2-12.22-1.64-3.58-1.06-8.22-1.28-12.4a100,100,0,0,0-.9-12.29c-1.55,2.54-.86,7.92-.86,7.92s.5,3.31.67,5c.5,4.72-1.4,9.58,1,14.21a4.08,4.08,0,0,1,0,2.5c-1,4.83.06,9.64,0,14.46,0,1.62.42,3.55-2.05,3.92l1.11,3.79,2.94.31,0-5.56s0-4.75,2.21-6.82c1.43-1.33,1.9-3.91,2.32-6a106.31,106.31,0,0,0,1.5-10.93c.25-2.65.18-5.16,1.46-7.79,1-2,.59-4.94.4-7.42-.5-6.17-1.3-12.31-1.79-18.5-.76-9.54-1.85-19-4.94-28.14a15,15,0,0,0-1.16-2.16C302.93,478.09,304.61,480.74,304.07,482.47Z" transform="translate(-158.72 -232.89)"/><path class="cls-2" d="M321.34,475.39l-3-9.07-2.13,3,2.72,3.25,2.42,2.89Z" transform="translate(-158.72 -232.89)"/><path class="cls-2" d="M296,535.24c2.76-2.33,2.76-4.76,0-7.09Z" transform="translate(-158.72 -232.89)"/><path class="cls-20" d="M297.09,546.38c2.8-1.89,2.76-3.34-.13-5Z" transform="translate(-158.72 -232.89)"/><path class="cls-2" d="M301.09,489.63c3.14-.35,3.35-.68,2-3.06C301.06,486.71,301.06,488.16,301.09,489.63Z" transform="translate(-158.72 -232.89)"/><path class="cls-21" d="M348.6,540.42c-.45.17-1.29.53-1.29.53s-3.38,8.14-1.71,12.66c.1.27-.09.64-.15,1l.74,1.43C350.1,551.12,348.37,545.61,348.6,540.42Z" transform="translate(-158.72 -232.89)"/><path class="cls-22" d="M325.4,435.92c0,1.36,0,2.73,0,4.1.33,1,.66,2,1,3Z" transform="translate(-158.72 -232.89)"/><path class="cls-2" d="M328.29,463.16l1.22.09c-.18-.44-.37-.87-.55-1.31Z" transform="translate(-158.72 -232.89)"/><path class="cls-23" d="M232.08,282.78l-7.22-2.08-.3.7,3.45,2.41Z" transform="translate(-158.72 -232.89)"/><path class="cls-22" d="M322.4,378.13c.69,5.15,1,10.4,2.16,15.42,2.22,9.16,1.86,27.65,1.86,27.65v6.59c.06.95.11,1.9.17,2.85l.86,0V427.6c0-9.56.26-19.13-.08-28.68-.22-6.3-1.31-12.58-2-18.87C325.14,378.18,323.79,378.14,322.4,378.13Z" transform="translate(-158.72 -232.89)"/><path class="cls-24" d="M335.12,556.73c4.08-6.69,2.78-32.33-2.54-42.69,1.07,8,2.83,21.91,2.83,21.91S335.26,549.75,335.12,556.73Z" transform="translate(-158.72 -232.89)"/><path class="cls-24" d="M330,502.87c-.6-6.11-3.07-11.67-5.3-17.3C325,491.78,327.58,497.3,330,502.87Z" transform="translate(-158.72 -232.89)"/><path class="cls-24" d="M330.36,506.22l1.4,5.66.83-.14-.94-6.11Z" transform="translate(-158.72 -232.89)"/><path class="cls-24" d="M323.85,482.15c-.08.14-.2.4-.2.4s.17.24.27.35C323.9,482.65,323.87,482.4,323.85,482.15Z" transform="translate(-158.72 -232.89)"/><path class="cls-24" d="M322.84,479.11c-.08.14-.2.4-.2.4l.26.35C322.9,479.61,322.86,479.36,322.84,479.11Z" transform="translate(-158.72 -232.89)"/><path class="cls-24" d="M321.3,475.43l.42,1.3-.38-1.34Z" transform="translate(-158.72 -232.89)"/><path class="cls-25" d="M297.9,450.19c.13-22.95.58-45.74,2.88-68.71-.55,1.08-1.46,2.12-1.58,3.24-.82,7.66-1.65,15.32-2.11,23-.32,5.38.05,10.79-.12,16.18-.14,4.5-1,9-.84,13.53C296.25,441.7,297.26,445.94,297.9,450.19Z" transform="translate(-158.72 -232.89)"/><path class="cls-24" d="M313.64,381.37c-3.3,20.71-4.59,41.53-1.75,62.51C309.71,422.94,312.85,402.22,313.64,381.37Z" transform="translate(-158.72 -232.89)"/></svg>