<svg id="Layer_1" data-name="Layer 1" xmlns="http://www.w3.org/2000/svg" viewBox="0 0 317.38 465.52"><defs><style>.cls-1{fill:#148119;}.cls-2{fill:#82480d;}.cls-3{fill:#5c3711;}.cls-4{fill:#5a3611;}.cls-5{fill:#185615;}.cls-6{fill:#195513;}.cls-7{fill:#175616;}.cls-8{fill:#185414;}.cls-9{fill:#175c16;}.cls-10{fill:#1c5816;}.cls-11{fill:#338c2e;}.cls-12{fill:#7d4a13;}.cls-13{fill:#0c5710;}.cls-14{fill:#105c13;}.cls-15{fill:#97a986;}.cls-16{fill:#549d67;}.cls-17{fill:#6a6342;}.cls-18{fill:#f8f8f5;}.cls-19{fill:#84490d;}.cls-20{fill:#844b10;}.cls-21{fill:#8c673e;}.cls-22{fill:#594322;}.cls-23{fill:#b2d8c1;}.cls-24{fill:#68390a;}.cls-25{fill:#663709;}</style></defs><title>palmtree</title><path class="cls-1" d="M276.85,313.75c2.27-4.32,1.75-8.5-.79-12.5-1.82-2.84-3.4-6-5.81-8.24-3.63-3.39-7.86-6.14-11.88-9.1-1.08-.8-2.47-1.2-3.44-2.09-7.36-6.7-16.47-9.77-25.81-12.11-6.18-1.56-12.58-2.23-18.86-3.4s-12.56-2.5-19.72-3.92l6.75-3.89a1.49,1.49,0,0,1,.56-.39l.77-.5L210,254.67l12.9-2.33a43.63,43.63,0,0,1,13.38,1.72c4.9,1.54,10.17,1.88,15.25,2.9,5.56,1.11,11,2.65,16.65,3.56,7.53,1.23,13.9,4.12,19.3,9.77,4.69,4.91,10.22,9,15.39,13.46.11.1.5.08.5.08v0l.58,2,.36,1.84,1.54,2.15c.34-1.39.54-2.23.74-3.06a.5.5,0,0,1,0-.71l.11-.09,3.76-5.12c4.72-7,9.18-14.13,16.38-19a12.21,12.21,0,0,0,2.71-3A25,25,0,0,1,341,250.11c2.82-1.08,5.42-2.74,8.21-3.94,4.14-1.78,8.23-4,12.58-4.93,10.5-2.17,31.88-4.13,31.88-4.13l6.5-.63,7.55-.15s10.85,1.32,16.06.53a39.32,39.32,0,0,1,14.89.91,59.22,59.22,0,0,0,6.5.83c2,.22,4,.46,6,.55s4,0,6,0a20.38,20.38,0,0,0-5.81-2c-1.72-.5-3.38-1.23-5.07-1.85,3.36,0,10.08-.08,10.08-.08s1.58.16,1.85.59c2.46,3.81,6.85,3.78,10.42,5.38a11.87,11.87,0,0,1,1.46,1.1c-6.67.61-12.86.89-19,1.79-17.84,2.61-35.57,5.86-52.3,12.86-12.23,5.12-22.95,12.73-32.62,21.78-.76.71-3.25,1.56-.75,3.24a26.42,26.42,0,0,0,3.84.79c6,.39,12.08.75,18.13,1,11.73.5,22.37,4.74,32.62,9.86a129.39,129.39,0,0,1,26.56,17.34c2.17,1.86,4.69,3.43,6.47,5.61,4.36,5.33,8.45,10.89,12.5,16.46a27,27,0,0,1,4.9,14.18c.67,10,.74,19.93,1.17,29.87.11,2.66.61,5.31.94,8v11.54c-1.3-2.54-2.47-4.7-3.5-6.93-4.5-9.43-8.88-18.89-13.39-28.31-4.75-9.93-12.94-16.66-21.62-22.9-.14-.1-.31-.14-.44-.24-11.81-9-25.55-12.05-39.94-12.12-6.47,0-13,1.58-19.39,2.81-2.18.42-4.57,1.5-5,4.63l6,3.13,1.82,1c5.42,1.67,9.53,5.24,13.22,9.43l-11.2-6.38c.77,1.44,1,2.3,1.5,2.73a106.55,106.55,0,0,0,9.19,7c4.83,3.08,9.61,6,13.07,10.86A175.22,175.22,0,0,1,425.09,403c1.12,3.12,3.19,5.88,4.74,8.86a20,20,0,0,1,2.19,5,202,202,0,0,1,4.16,36,11.2,11.2,0,0,0,.75,2.74,11,11,0,0,0,1.45-4.57,62.17,62.17,0,0,0,0-21.08c-.69-4.38-1-8.83-1.5-13.25,1.34,3.41,3.17,6.72,3.92,10.25a117.09,117.09,0,0,1,1.58,35.69,14.12,14.12,0,0,1-.38,2.5c-.8,2.66-2.56,3.14-4.4,1.05a26.09,26.09,0,0,1-3-4.64,143,143,0,0,0-20.28-28.91,14.11,14.11,0,0,0-1.88-1.4c0,9,4.82,16.84,4.16,25.9-3-.86-3.36-3.26-4.13-5.08-2.4-5.75-4.53-11.62-6.87-17.4-4.95-12.2-10.54-24.08-18.42-34.73-1-1.29-2.14-2.42-4-4.5,1.76,10.85,7.16,19.73,6.16,31.06a18.77,18.77,0,0,1-2.12-3.08,64,64,0,0,1-1.9-6.29c-3-12.64-10.91-22.72-18-33.09-3-4.33-7.78-7.4-11.77-11-1.37-1.25-4.25-3.58-4.25-3.58s-1.63,0-2.5,0l.12.13c1.7.22,1.72-.5,1-1.68-.92-1.61-1.5-3.62-2.85-4.7s-3.45-1.25-5.38-1.86c-.11.81-.21,1.61-.32,2.41l-7.61,1.43a33.1,33.1,0,0,0-13.41,4.88L313.42,374l-4,.11a29.59,29.59,0,0,0,2.86-3.4,3,3,0,0,0,.34-2.57,2.85,2.85,0,0,0-2.54-.81,8.29,8.29,0,0,0-5.84,5.66l-1.65,5.72c-9.94,3.58-15.72,11.19-19.57,20.51-1.85,4.5-3.66,9.06-3,14.16.22,1.78-.35,3.6-2.59,3.5-1.89-.06-2.41-1.65-2.29-3.31.3-4,.63-8,1.07-12,.13-1.28.63-2.53.23-4.26-1.85,2.09-3.81,4.09-5.54,6.27-2.92,3.7-5.57,7.61-8.57,11.24a43.39,43.39,0,0,0-10.19,33.3,7.64,7.64,0,0,1,.08,3,10.38,10.38,0,0,1-1.93,2.5c-.65-.84-1.88-1.69-1.87-2.5.06-5.5-.11-11.11.74-16.54,1.37-8.74,3.46-17.37,5.34-26.44a10.73,10.73,0,0,0-1.74,1.5c-4.8,6.7-10.08,13.13-14.19,20.24-4.28,7.4-7.75,15.4-8.5,24.12-.5,6-.5,12.08-.71,18.13,0,.67,0,2,0,2s.5,4.2-2.21,4.26c-2.44,0-2.73-2-2.59-4-.1-3.79-.12-7.58-.32-11.37-.21-4.18-.61-8.36-.89-12.54a16.14,16.14,0,0,1,0-4c1.37-7.42,2.6-14.88,4.39-22.2,1.5-6,4.24-11.79,5.4-17.86,2-10.36,7.15-18.84,14.18-26.23s13.7-14.94,22.71-20a13.18,13.18,0,0,0,3.61-2.73c2.61-3,7.13-4.09,8.5-8.36a.71.71,0,0,1,.88-.32l1.08-.65a.42.42,0,0,1,.51-.3.37.37,0,0,1,.14.07l1.37-.72a.5.5,0,0,1,.63-.31l.12.05,3.6-1.21-2.5-1.88c-10.12-.42-20.21-.41-30.18,1.88-9.5,2.19-18.37,5.76-26,11.76a23.14,23.14,0,0,0-8.58,13.86c-1.25,5.89-3.6,11.55-5.32,17.35-.77,2.57-1.12,5.27-1.78,7.87-.43,1.69-1.15,3.36-3.34,3.08s-2.79-2-2.58-3.73a79.47,79.47,0,0,1,1.8-10.39c1.92-7.45,4.09-14.84,6.3-22.8a27.57,27.57,0,0,0-13.48,5.74,136.87,136.87,0,0,0-16.18,15.19,162.6,162.6,0,0,0-15,20.3c-3.28,5.22-5.31,11.23-7.88,16.89-.7,1.54-2.11,4.58-2.11,4.58l-2.33,1.41s-2.09-1.27-2.31-2.17a22.45,22.45,0,0,1-.13-5,12.86,12.86,0,0,0,.59-1.39,139,139,0,0,1,18.13-39.23c5.4-8.05,11.73-15.5,17.25-23.52,7.6-11,19.31-17,29.5-24.88a10.23,10.23,0,0,1,2.8-1.14c7.11-2.65,14.13-5.54,21.35-7.85C257.75,318.49,266.51,313.19,276.85,313.75Zm100.5,25.85.42.23-.43-.23-.41-.23Zm-7.66,32.16c2-5.23,1.94-11.59.46-14.55-.42-.85-1.56-1.34-2.38-2-.32,1-1,2-.9,2.9.34,3.64.84,7.27,1.45,10.87a10.38,10.38,0,0,0,1.36,2.78Zm35.16,34.95c5.7-5.71,6.79-15.44,1.71-19.35,2.5,7.13.7,13.27-1.71,19.35ZM411.17,248c-7.69-4.17-15.5-5.36-18.56-3.3Z" transform="translate(-158.72 -232.89)"/><path class="cls-2" d="M349,695.18c-9,.37-18,.9-27.05,1.06-9.19.16-18.41-.45-27.41,2.11a8.36,8.36,0,0,1-2,0h-1l-.26-.07c2-2.5,1.25-4.92-.09-7.44-.85-1.6-1.9-3.38-1.9-5.08,0-4.5-.42-13.47-.42-13.47s2.11-12.73,4.83-18.85c2.25-5.05,5.79-6.38,10.5-6.61.5,0,1.14.34,1.5.14,4.44-2.58,9.24-.81,13.86-1.14,1.2-.08,2.5,1,3.8,1.5.7-1.79,2.48-1.84,4.41-1.4,3.43.79,6.86,1.55,10.26,2.44,1.71.44,2.92.22,3.74-2.23-1.9-.74-3.66-1.85-5.52-2.07-8-.94-16-1.62-24-2.38a3.81,3.81,0,0,0-1.5.12c-4.45,1.44-8.91,2.87-13.34,4.39-1.83.63-3.46,2.24-5.71,1-.31-3.8,4.12-7.84-.8-11.74L286.33,642c-1.89-4.11-3.36-7.63-5.1-11a33.25,33.25,0,0,1-3.26-14.1,142.82,142.82,0,0,1,2.12-30.13c1.46-8.65,3.61-17,9.06-24.16.72,1,1.21,2.46,2.2,3.06,6,3.67,12.07,7.35,18.33,10.6,2.58,1.33,5.71,1.59,8.46,2.3.56,6.95,1.1,13.65,1.63,20.34l1-.07-.93-11.45a57.36,57.36,0,0,1-.23-6.55,3.28,3.28,0,0,1,4.77-2.81,22.83,22.83,0,0,1,5.7,4.66c9,10.59,13.38,23.21,15.72,36.67a30.48,30.48,0,0,1,.82,8c-.71,7.5-1.76,15-2.85,22.45a29.93,29.93,0,0,1-1.9,5.5,30.7,30.7,0,0,0-4,4.25,5.15,5.15,0,0,0-.6,4.11c1.72,3.71,3.61,7.2,4.64,11.33,1.27,5.13,4.14,9.85,6.1,14.83C348.73,691.44,348.71,693.37,349,695.18Zm-26.67-87.95h-.46v5h.46Zm-.87-4.42-.34-.88c-.13.11-.35.33-.35.33s.05.63.09.94Z" transform="translate(-158.72 -232.89)"/><path class="cls-3" d="M349,695.18c-.29-1.81-.27-3.74-.92-5.4-2-5-4.83-9.71-6.1-14.84-1-4.12-2.92-7.61-4.64-11.33a5.09,5.09,0,0,1,.6-4.1,28.93,28.93,0,0,1,4-4.25,29.64,29.64,0,0,0,1.9-5.5c1.09-7.47,2.14-14.94,2.85-22.45a30.44,30.44,0,0,0-.82-8c-2.34-13.47-6.74-26.09-15.72-36.68a22.94,22.94,0,0,0-5.7-4.63c-2-1.2-4.58.38-4.76,2.81a57.36,57.36,0,0,0,.23,6.55s.61,7.63.93,11.45l-1,.07c-.54-6.69-1.08-13.39-1.63-20.34-2.75-.71-5.89-1-8.46-2.3-6.26-3.25-12.3-6.93-18.34-10.6-1-.6-2.2-3.06-2.2-3.06h0a14.17,14.17,0,0,1,3.32.91c6.63,3.66,13.19,7.44,19.8,11.13a7.34,7.34,0,0,0,6.78.63c.42-.18,1-.63,1.24-.5,4.8,2.8,6.67-.48,8.44-4l2.94-.31,1.11-3.79a23.7,23.7,0,0,0,2-4.5c1.12-5.25,2-10.54,3-15.81l.14-5q.45-3.06.91-6.1v-7.09a62.64,62.64,0,0,0-.16-7c-.86-6.76-1.87-13.5-2.91-20.25-.58-3.76-1.31-7.5-2-11.25,0-1.47,0-2.92-2-3.06-.33-1.37-.66-2.73-1-4.1-.54-1.73,1.14-4.38-2.08-5-.18-2,.89-4.63-1.65-5.7a81,81,0,0,0-8.38-2.5l-2.13-3c-3.34-3-4.53-7.16-6.05-11.15l1.92-2a31.76,31.76,0,0,1,2,4.5c.95,3.28,5.79,7.38,5.79,7.38s7.3,3.43,11,5a2.74,2.74,0,0,0,3.88-1.24c2.3-4.41,5-8.68,6.75-13.3,2.81-7.36,5.14-14.94,5.35-23s1.43-15.93.33-23.64c-1.39-9.78-2.59-19.58-3.72-29.39-.37-3.19-1.4-6.46-4.79-7.75-3.93-1.5-8.08-2.62-12.3-1.22s-8.16,3-12.24,4.56l-1-1.12,6.91-3.91a26.68,26.68,0,0,0,13.4-4.88l7.61-1.43q3.5,2.13,7,4.25l.56,1.58-.11-.13c1.38,8.61,2.69,17.23,4.17,25.82.68,3.95,2.5,11.78,2.5,11.78s.84,6.43.21,9.45c-2.79,13.48-4.86,27.14-9.72,40.12-1.91,5.11-5.23,15.5-5.23,15.5l-.08.08a7.19,7.19,0,0,0,.43-4.8c-2.92,4.32-3.24,12.77-3.24,12.77s3.42,7.66,5,11.56a14.73,14.73,0,0,1,1.13,4.86c.35,10.93.6,21.87.83,32.81a64.12,64.12,0,0,1-2.57,18.44c-1.42,5.17-2,10.57-3.44,15.75-1.23,4.53-3.08,8.89-4.74,13.57,3.34,5.08,6.8,10.42,10.34,15.71s5,11.39,6.19,17.5a69.86,69.86,0,0,1-1.5,33.5C347.27,650,345.8,656.14,344,663c2.7,8.06,7.15,16.44,8.93,25.77.2,1,1.31,1.9,2.14,3C353.65,693.75,351.92,695.43,349,695.18Z" transform="translate(-158.72 -232.89)"/><path class="cls-4" d="M312.39,453.13l-1.93,2-3.93,8-.67-1.22-.54,1.31c-4.93,9.61-8,19.92-11,30.22-1.89,6.42-3.86,12.91-4.82,19.5-1.23,8.44-.11,17.2-3.29,25.42a5,5,0,0,0,0,2c.24,5.2-1.5,10.7,2.42,15.59.31-.61.52-1,.74-1.43,2.5,3.4-.23,8-.23,8h0s-7.6,15.5-9.06,24.16A142.82,142.82,0,0,0,278,616.89a33.55,33.55,0,0,0,3.26,14.1c1.74,3.39,3.21,6.9,5.1,11l4.53-6.55c4.92,3.89.5,7.94.8,11.74,2.25,1.25,3.88-.36,5.71-1,4.43-1.5,8.89-3,13.34-4.39a3.64,3.64,0,0,1,1.5-.13c8,.76,16,1.45,24,2.39,1.86.22,3.62,1.33,5.52,2.06-.82,2.45-2,2.67-3.74,2.23-3.4-.88-6.83-1.65-10.26-2.43-1.93-.44-3.71-.39-4.41,1.4-1.32-.56-2.6-1.6-3.8-1.5-4.62.33-9.42-1.45-13.86,1.14-.34.2-1-.18-1.5-.15-4.73.24-8.28,1.56-10.5,6.62-2.72,6.12-4.83,18.85-4.83,18.85s.44,9,.42,13.46c0,1.7,1.05,3.5,1.9,5.08,1.34,2.5,2.06,4.94.09,7.45-4.11-.43-4.71-4-5.74-6.86a52.73,52.73,0,0,1-2.81-26.33c.82-5.47,2.21-16.45,2.21-16.45l-.8-3.73s-6.33-13-8.68-19.81c-1.56-4.5-1.87-9.55-2.27-14.39-.45-5.36-.44-10.77-.45-16.16a17,17,0,0,1,.94-4.94c2.17-7.23,4-14.62,6.79-21.6,2.7-6.68,2.72-13.3,2.45-20.27s.45-14.12,1-21.17c1.24-17.39,6.1-34,10.8-50.7,1.46-5.17,3.67-10.13,5.61-15.16,1.38-3.59,3-7.1,4.29-10.73a7.28,7.28,0,0,0,0-3.82,173.69,173.69,0,0,1-4.86-43,163.61,163.61,0,0,1,2.87-24.47l1.64-5.72a8.32,8.32,0,0,1,5.84-5.66,2.84,2.84,0,0,1,2.55.81c.38.5.09,1.86-.35,2.57a28.52,28.52,0,0,1-2.85,3.4c.07.5.36,1.09.18,1.46-3.25,7.12-4.54,14.83-5,22.4a171.33,171.33,0,0,0,2,41.75c.19,1-.37,3.15,1.87,3.29.33-1,.66-2,1-3a7.59,7.59,0,0,1,1.94-.5c1.08,0,2.42-.16,3.19.4,1.35,1,.57,2.27,0,3.59a27.25,27.25,0,0,0-1.12,4.78C313.1,449.89,312.75,451.54,312.39,453.13Z" transform="translate(-158.72 -232.89)"/><path class="cls-5" d="M472.59,385c-.33-2.65-.83-5.3-.94-7.95-.43-9.93-.5-19.87-1.17-29.77a27,27,0,0,0-4.9-14.18c-4.07-5.57-8.16-11.13-12.5-16.46-1.78-2.18-4.3-3.75-6.47-5.61a129.39,129.39,0,0,0-26.56-17.34c-10.25-5.12-20.89-9.39-32.62-9.86-6.05-.25-12.09-.61-18.13-1a26.42,26.42,0,0,1-3.84-.79c1.59-.5,3.16-1.35,4.75-1.38,6.81-.16,20.45-.06,20.45-.06s5.34.17,8,.27l4.1,1.93,4.07,1,2.5,1.14c12.77,3.93,24.83,9.38,35.35,17.7,7,5.5,18.29,19.23,18.29,19.23s3.77,5.15,5.74,7.65a30.35,30.35,0,0,1,6.3,16.23c1.14,12.39,2.23,24.77-1.39,37A16.11,16.11,0,0,1,472.59,385Z" transform="translate(-158.72 -232.89)"/><path class="cls-6" d="M446.27,235.35c1.69.63,3.34,1.37,5.07,1.85a20.83,20.83,0,0,1,5.81,2c-2,0-4,.07-6,0s-4-.33-6-.56a56.89,56.89,0,0,1-6.5-.83,39.17,39.17,0,0,0-14.9-.9c-5.21.79-16.06-.53-16.06-.53l-7.55.15-6.5.63s-21.38,2-31.88,4.12c-4.35.9-8.43,3.15-12.58,4.94-2.79,1.19-5.38,2.85-8.21,3.93a25,25,0,0,0-11.47,8.67,12.56,12.56,0,0,1-2.71,3c-7.19,4.85-11.66,12-16.37,19l-1.06-1.16c2.93-8.43,7.46-15.74,14.5-21.42,3.93-3.17,7.25-7.32,11.56-9.73,7.46-4.16,15.18-8.41,23.33-10.6,10.63-2.85,21.46-5.72,32.8-4.93,9.89.68,19.82.91,29.73,1.12,5.83.12,11.65-1,17.46.93C441,235.78,443.74,235.28,446.27,235.35Z" transform="translate(-158.72 -232.89)"/><path class="cls-7" d="M282.12,349c-1.35,4.27-5.87,5.34-8.5,8.36a13.38,13.38,0,0,1-3.61,2.73c-9,5-15.77,12.65-22.72,20S235.1,396,233.12,406.32c-1.16,6.08-3.93,11.83-5.41,17.87-1.79,7.32-3,14.78-4.39,22.2a17.06,17.06,0,0,0,0,4c.28,4.18.68,8.36.9,12.55.2,3.78.22,7.58.31,11.36-4.17-8.5-5.12-17.73-6-26.94a29,29,0,0,1,.58-7,176.39,176.39,0,0,1,7.22-30.92c3.39-10.13,9.23-18.64,15-27.28,1.86-2.78,4.5-5,6.68-7.6,8.54-10.05,19.31-17.24,30.46-23.95A28.27,28.27,0,0,1,282.12,349Z" transform="translate(-158.72 -232.89)"/><path class="cls-8" d="M276.85,313.75c-10.34-.56-19.1,4.74-28.43,7.79-7.2,2.33-14.21,5.22-21.31,7.87a10.29,10.29,0,0,0-2.79,1.14c-10.21,7.84-21.92,13.84-29.5,24.88-5.5,8-11.86,15.47-17.27,23.55a139,139,0,0,0-18.13,39.22,12.07,12.07,0,0,1-.59,1.39,54.65,54.65,0,0,1,3.08-21.83,123.39,123.39,0,0,1,15-27.37c6.12-8.6,13.85-15.62,20.35-23.78a17.25,17.25,0,0,1,4-3.86c8.25-5.2,16.22-11.08,25-15.13,9.43-4.35,19.67-6.93,29.55-10.29,1.9-.64,3.85-1.2,5.68-2C266.45,313.14,271.64,313.39,276.85,313.75Z" transform="translate(-158.72 -232.89)"/><path class="cls-9" d="M436.92,416.69c.5,4.42.79,8.87,1.5,13.25a62.11,62.11,0,0,1,0,21.07,11,11,0,0,1-1.45,4.56,11.53,11.53,0,0,1-.75-2.74A202.1,202.1,0,0,0,432,416.88a20.62,20.62,0,0,0-2.19-5c-1.55-3-3.62-5.74-4.74-8.85A174.84,174.84,0,0,0,403,361.24c-3.47-4.87-8.25-7.77-13.07-10.85a112.46,112.46,0,0,1-9.19-7c-.54-.43-.73-1.29-1.5-2.73L390.42,347c2.61,1.79,5.5,3.3,7.78,5.44a80,80,0,0,1,9.5,10.4c4,5.43,6.36,12.05,11.78,16.5-.89,3.44,1.83,5.47,3.39,7.72C429.15,396.23,432.66,406.63,436.92,416.69Z" transform="translate(-158.72 -232.89)"/><path class="cls-10" d="M210,254.69l-11.38,2.94c7.41-5.55,25-8,25-8s14.56,2.5,21.95,2.6c6.11.07,17.78,3.16,17.78,3.16s8.16,2,12.29,2.78a17.28,17.28,0,0,1,9.32,4.6c2.74,2.69,5.78,5.09,8.82,7.72l3.47-2.28c2.12,5.43,4.13,10.56,6.14,15.69a1,1,0,0,1-.5-.08c-5.17-4.45-10.69-8.55-15.39-13.46-5.4-5.65-11.77-8.54-19.3-9.77-5.59-.91-11.08-2.45-16.65-3.56-5.07-1-10.34-1.36-15.24-2.9a44,44,0,0,0-13.38-1.72c-3.41-1-9-.24-13.81,1.91C209.42,254.42,209.7,254.54,210,254.69Z" transform="translate(-158.72 -232.89)"/><path class="cls-11" d="M409.32,285l-2.5-1.14,3.45-2.41-.3-.7-7.22,2.08-4.1-1.94a121.14,121.14,0,0,1,24.69-3.56c-.5,2.78-2.29,2.82-4.08,2.9A13.55,13.55,0,0,0,409.32,285Z" transform="translate(-158.72 -232.89)"/><path class="cls-10" d="M309.35,279.63l1.06,1.17-3.77,5.12Q308,282.78,309.35,279.63Z" transform="translate(-158.72 -232.89)"/><path class="cls-7" d="M288,343.75l2.5,1.88-3.61,1.21C287.33,345.85,290,345.64,288,343.75Z" transform="translate(-158.72 -232.89)"/><path class="cls-10" d="M306.57,286.72c-.21.83-.41,1.67-.75,3.06l-1.53-2.15Z" transform="translate(-158.72 -232.89)"/><path class="cls-9" d="M377.17,337.58l-1.82-1Z" transform="translate(-158.72 -232.89)"/><path class="cls-10" d="M303.92,285.79l-.58-2Z" transform="translate(-158.72 -232.89)"/><path class="cls-3" d="M340.76,472.12l-.53.58.58.25c0-.25-.08-.5-.13-.75Z" transform="translate(-158.72 -232.89)"/><path class="cls-7" d="M286.1,347.1l-1.37.72Z" transform="translate(-158.72 -232.89)"/><path class="cls-4" d="M291.53,698.35h0Z" transform="translate(-158.72 -232.89)"/><path class="cls-7" d="M284.08,348l-1.08.65Z" transform="translate(-158.72 -232.89)"/><path class="cls-10" d="M197.85,258.13a1.61,1.61,0,0,0-.56.39C197.33,258.18,197.52,258,197.85,258.13Z" transform="translate(-158.72 -232.89)"/><path class="cls-12" d="M308.46,443c-2.24-.13-1.67-2.25-1.86-3.29a168.87,168.87,0,0,1-2-41.75c.5-7.57,1.79-15.28,5-22.4.17-.37-.12-1-.19-1.46l4-.11,1.07,1.12c0,1.5,0,2.94-2.07,3.05-1.39,0-2.74.05-2.94,1.92-.69,6.29-1.78,12.56-2,18.87-.34,9.55-.08,19.12-.08,28.68v3.08l.86,0,.17-2.85c.33,2.71.67,5.42,1,8.13Z" transform="translate(-158.72 -232.89)"/><path class="cls-13" d="M369.68,371.76a10.93,10.93,0,0,1-1.37-2.76c-.6-3.61-1.11-7.24-1.45-10.87-.08-.94.59-1.94.91-2.91.81.65,2,1.14,2.38,2C371.62,360.17,371.71,366.54,369.68,371.76Z" transform="translate(-158.72 -232.89)"/><path class="cls-14" d="M404.85,406.71c2.41-6.08,4.21-12.22,1.71-19.35C411.63,391.27,410.54,401,404.85,406.71Z" transform="translate(-158.72 -232.89)"/><path class="cls-15" d="M348.38,368l-7-4.25.33-2.41c1.92.61,4,.78,5.37,1.86s1.94,3.09,2.86,4.7Z" transform="translate(-158.72 -232.89)"/><path class="cls-13" d="M411.17,248l-18.56-3.3C395.65,242.62,403.47,243.81,411.17,248Z" transform="translate(-158.72 -232.89)"/><path class="cls-16" d="M210,254.69l-.91-.42c4.84-2.15,10.41-2.91,13.81-1.91Z" transform="translate(-158.72 -232.89)"/><path class="cls-17" d="M333.73,365.17a26.55,26.55,0,0,1-13.4,4.88A33.06,33.06,0,0,1,333.73,365.17Z" transform="translate(-158.72 -232.89)"/><path class="cls-9" d="M377.34,339.6l-.41-.23.41.23Z" transform="translate(-158.72 -232.89)"/><path class="cls-9" d="M377.34,339.6l.42.23-.42-.23Z" transform="translate(-158.72 -232.89)"/><path class="cls-18" d="M348.38,368l1.5-.1c.77,1.17.74,1.9-1,1.68C348.75,369,348.57,368.54,348.38,368Z" transform="translate(-158.72 -232.89)"/><path class="cls-3" d="M322.33,607.23v5h-.46v-5Z" transform="translate(-158.72 -232.89)"/><path class="cls-3" d="M321.46,602.81l-.6.39c0-.31-.09-.94-.09-.94s.22-.22.35-.33Z" transform="translate(-158.72 -232.89)"/><path class="cls-19" d="M306.53,463.16l3.93-8c1.5,4,2.72,8.15,6.06,11.15l-3,9.07-.38,1.34c.14-.43.27-.87.41-1.3l2.4-2.88,2.71-3.25a68.49,68.49,0,0,1,8.38,2.5c2.54,1.06,1.47,3.67,1.65,5.7a14,14,0,0,0-1.16,2.16c-3.09,9.12-4.18,18.59-4.94,28.14-.5,6.17-1.31,12.31-1.79,18.5-.19,2.5-.6,5.36.4,7.42,1.28,2.62,1.21,5.13,1.46,7.78a105.93,105.93,0,0,0,1.5,10.93c.42,2.12.89,4.7,2.32,6,2.22,2.07,2.21,6.82,2.21,6.82l0,5.56c-1.77,3.53-3.64,6.81-8.44,4-.24-.14-.82.31-1.24.5a7.28,7.28,0,0,1-6.78-.63c-6.61-3.69-13.17-7.47-19.8-11.13a14.12,14.12,0,0,0-3.32-.91c2.72-4.3,2.73-4.63.23-8-.06-.33-.25-.7-.15-1,1.67-4.5-1.71-12.66-1.71-12.66s-.84-.36-1.29-.53a5.44,5.44,0,0,1-.05-2c3.18-8.23,2.06-17,3.29-25.43,1-6.6,2.93-13.09,4.83-19.5,3-10.29,6.09-20.6,11-30.22Zm-6.82,93.57c-.14-7-.3-20.81-.3-20.81s1.77-13.95,2.84-21.9C296.92,524.4,295.63,550,299.71,556.73Zm5.1-53.86c2.43-5.57,5-11.09,5.3-17.3-2.23,5.63-4.69,11.19-5.3,17.3Zm-.35,3.35-1.28-.59-.95,6.11.83.14Zm6.5-24.07-.06.75.27-.35s-.12-.26-.2-.4Zm1-3c0,.25,0,.5-.06.75l.26-.35s-.1-.26-.17-.4Z" transform="translate(-158.72 -232.89)"/><path class="cls-2" d="M309.42,435.92c-.33-2.71-.67-5.42-1-8.13V421.2s-.36-18.5,1.86-27.64c1.21-5,1.47-10.28,2.16-15.43,2-.11,2.09-1.54,2.07-3.05,4.07-1.52,8.11-3.17,12.24-4.55s8.36-.28,12.3,1.21c3.39,1.29,4.42,4.56,4.78,7.75,1.14,9.82,2.33,19.62,3.73,29.4,1.1,7.71-.13,15.75-.34,23.64s-2.54,15.59-5.35,23c-1.76,4.62-4.45,8.88-6.75,13.29a2.73,2.73,0,0,1-3.88,1.24c-3.71-1.58-11-5-11-5s-4.83-4.1-5.78-7.38a33.48,33.48,0,0,0-2-4.5c.36-1.61.71-3.23,1.07-4.85a27.32,27.32,0,0,1,1.13-4.78c.57-1.32,1.35-2.62,0-3.59-.77-.56-2.11-.4-3.2-.4a7.7,7.7,0,0,0-1.94.5C309.44,438.65,309.42,437.28,309.42,435.92Zm27.5,14.27c.63-4.25,1.64-8.5,1.78-12.76.14-4.5-.7-9-.85-13.53-.17-5.38.21-10.8-.11-16.17-.47-7.69-1.3-15.35-2.11-23-.12-1.12-1-2.16-1.59-3.24C336.36,404.44,336.81,427.24,336.92,450.19Zm-15.75-68.82c.79,20.85,3.93,41.57,1.75,62.51,2.86-21,1.57-41.8-1.73-62.51Z" transform="translate(-158.72 -232.89)"/><path class="cls-19" d="M338.78,535.24l-.91,6.11c-2.89,1.69-2.93,3.14-.14,5-1,5.28-1.88,10.57-3,15.81a23.66,23.66,0,0,1-2,4.5c-2.47-.37-2-2.29-2.06-3.92,0-4.81,1-9.63,0-14.45a4.24,4.24,0,0,1,0-2.5c2.36-4.63.5-9.5,1-14.22.17-1.66.68-5,.68-5s.68-5.37-.87-7.91a99.9,99.9,0,0,0-.9,12.29c-.21,4.18.36,8.82-1.27,12.4-1.78,3.9.79,8.11-2,12.22-.67-1.72-1.2-2.77-1.5-3.88-1.53-5.75-.64-11.83-2.29-17.57a4.18,4.18,0,0,1,0-1V517c0-1.18-.32-2.54.15-3.5,2.26-4.69.5-9.8,1.78-14.62a72.45,72.45,0,0,0,1.65-11.41,6.32,6.32,0,0,1,3.56-5c.33,1.37.66,2.73,1,4.1-1.37,2.38-1.16,2.71,2,3.06.66,3.75,1.4,7.5,2,11.26,1,6.74,2,13.5,2.91,20.24a65.37,65.37,0,0,1,.15,7C336,530.48,336,532.91,338.78,535.24Z" transform="translate(-158.72 -232.89)"/><path class="cls-2" d="M330.76,482.47a6.32,6.32,0,0,0-3.56,5,73.64,73.64,0,0,1-1.65,11.41c-1.28,4.82.5,9.93-1.78,14.62-.47,1-.15,2.33-.15,3.5v16.19a4.18,4.18,0,0,0,0,1c1.65,5.75.76,11.82,2.29,17.57a38.53,38.53,0,0,0,1.5,3.88c2.76-4.1.19-8.32,2-12.22,1.63-3.58,1.06-8.22,1.27-12.4a100,100,0,0,1,.9-12.29c1.55,2.54.87,7.92.87,7.92s-.5,3.31-.68,5c-.5,4.72,1.4,9.58-1,14.21a4.24,4.24,0,0,0,0,2.5c1,4.83-.06,9.64,0,14.46,0,1.62-.41,3.55,2.06,3.92l-1.12,3.79-2.94.31,0-5.56s0-4.75-2.21-6.82c-1.42-1.33-1.89-3.91-2.32-6a106.31,106.31,0,0,1-1.5-10.93c-.24-2.65-.18-5.16-1.46-7.79-1-2-.59-4.94-.39-7.42.5-6.17,1.3-12.31,1.79-18.5.76-9.54,1.84-19,4.94-28.14a14,14,0,0,1,1.16-2.16C331.89,478.09,330.22,480.74,330.76,482.47Z" transform="translate(-158.72 -232.89)"/><path class="cls-2" d="M313.49,475.39l3-9.07,2.12,3-2.72,3.25-2.41,2.89Z" transform="translate(-158.72 -232.89)"/><path class="cls-2" d="M338.78,535.24c-2.76-2.33-2.76-4.76,0-7.09Z" transform="translate(-158.72 -232.89)"/><path class="cls-20" d="M337.73,546.38c-2.79-1.89-2.75-3.34.14-5Z" transform="translate(-158.72 -232.89)"/><path class="cls-2" d="M333.74,489.63c-3.14-.35-3.36-.68-2-3.06C333.77,486.71,333.77,488.16,333.74,489.63Z" transform="translate(-158.72 -232.89)"/><path class="cls-21" d="M286.22,540.42c.45.17,1.3.53,1.3.53s3.38,8.14,1.7,12.66c-.09.27.1.64.15,1l-.73,1.43C284.72,551.12,286.46,545.61,286.22,540.42Z" transform="translate(-158.72 -232.89)"/><path class="cls-22" d="M309.42,435.92c0,1.36,0,2.73,0,4.1l-1,3Z" transform="translate(-158.72 -232.89)"/><path class="cls-2" d="M306.53,463.16l-1.21.09.54-1.31Z" transform="translate(-158.72 -232.89)"/><path class="cls-23" d="M402.74,282.78,410,280.7c.1.23.19.47.29.7l-3.45,2.41Z" transform="translate(-158.72 -232.89)"/><path class="cls-22" d="M312.42,378.13c-.69,5.15-.94,10.4-2.16,15.42-2.21,9.16-1.85,27.65-1.85,27.65v6.59c-.06.95-.12,1.9-.17,2.85l-.86,0V427.6c0-9.56-.27-19.13.07-28.68.23-6.3,1.32-12.58,2-18.87C309.68,378.18,311,378.14,312.42,378.13Z" transform="translate(-158.72 -232.89)"/><path class="cls-24" d="M299.71,556.73c-4.08-6.69-2.79-32.33,2.54-42.69-1.07,8-2.84,21.91-2.84,21.91S299.57,549.75,299.71,556.73Z" transform="translate(-158.72 -232.89)"/><path class="cls-24" d="M304.81,502.87c.6-6.11,3.07-11.67,5.3-17.3C309.85,491.78,307.24,497.3,304.81,502.87Z" transform="translate(-158.72 -232.89)"/><path class="cls-24" d="M304.46,506.22l-1.4,5.66-.83-.14.95-6.11Z" transform="translate(-158.72 -232.89)"/><path class="cls-24" d="M311,482.15l.2.4-.27.35C310.92,482.65,311,482.4,311,482.15Z" transform="translate(-158.72 -232.89)"/><path class="cls-24" d="M312,479.11l.2.4-.27.35C311.92,479.61,312,479.36,312,479.11Z" transform="translate(-158.72 -232.89)"/><path class="cls-24" d="M313.52,475.43c-.14.43-.27.87-.41,1.3l.38-1.34Z" transform="translate(-158.72 -232.89)"/><path class="cls-25" d="M336.92,450.19c-.13-22.95-.58-45.74-2.88-68.71.55,1.08,1.47,2.12,1.59,3.24.81,7.66,1.64,15.32,2.11,23,.32,5.38-.06,10.79.11,16.18.15,4.5,1,9,.85,13.53C338.58,441.7,337.56,445.94,336.92,450.19Z" transform="translate(-158.72 -232.89)"/><path class="cls-24" d="M321.19,381.37c3.3,20.71,4.59,41.53,1.75,62.51C325.11,422.94,322,402.22,321.19,381.37Z" transform="translate(-158.72 -232.89)"/></svg>